# xmcd
#
# Track frame offsets:
#	150
#	25713
#	45842
#	69107
#	96171
#	112359
#	131522
#	156648
#	179115
#	198347
#	228360
#
# Disc length: 3355 seconds
#
# Revision: 2
# Processed by: cddbd v1.5.2PL0 Copyright (c) Steve Scherf et al.
# Submitted via: audiograbber 1.83.01
#
DISCID=940d190b
DTITLE=Doug MacLeod - Brand New Eyes
DYEAR=2011
DGENRE=Blues
TTITLE0=Brand New Eyes
TTITLE1=Something Dark Is Walking
TTITLE2=The Train Of Change
TTITLE3=Midnight In Memphis
TTITLE4=Zu-Zu Woman
TTITLE5=One Eyed Owl
TTITLE6=Somewhere South Of Somewhere
TTITLE7=I Rolled A Nickel
TTITLE8=The Nature Of The Man
TTITLE9=Some Old Blues Song (aka I Can Count On My Blues)
TTITLE10=Welcome In Your Home
EXTD=
EXTT0=
EXTT1=
EXTT2=
EXTT3=
EXTT4=
EXTT5=
EXTT6=
EXTT7=
EXTT8=
EXTT9=
EXTT10=
PLAYORDER=
